<?xml version="1.0" standalone="no"?>
<!DOCTYPE svg PUBLIC "-//W3C//DTD SVG 20010904//EN"
 "http://www.w3.org/TR/2001/REC-SVG-20010904/DTD/svg10.dtd">
<svg version="1.0" xmlns="http://www.w3.org/2000/svg"
 width="952.000000pt" height="720.000000pt" viewBox="0 0 952.000000 720.000000"
 preserveAspectRatio="xMidYMid meet">
<metadata>
Created by potrace 1.16, written by Peter Selinger 2001-2019
</metadata>
<g transform="translate(0.000000,720.000000) scale(0.100000,-0.100000)"
fill="#000000" stroke="none">
<path d="M0 3600 l0 -3600 4760 0 c4528 0 4759 1 4753 18 -3 9 -10 22 -14 27
-4 6 -28 53 -54 105 -26 52 -55 106 -65 120 -10 14 -29 59 -44 100 -32 92 -30
86 -107 243 -65 134 -127 217 -160 217 -11 0 -34 -7 -51 -16 -57 -29 -137 -45
-176 -35 -21 6 -49 13 -64 16 -41 8 -83 60 -107 134 -13 36 -27 75 -31 86 -5
11 -25 65 -45 120 -48 135 -57 155 -130 270 -71 114 -105 173 -151 265 -23 44
-65 97 -137 170 -121 123 -165 179 -178 223 -12 41 -37 202 -59 382 -14 118
-27 195 -39 238 -6 20 -15 53 -20 74 -5 20 -19 49 -30 64 -12 16 -21 30 -21
33 0 14 -103 156 -136 188 -34 32 -46 37 -94 40 l-55 3 -27 55 c-75 152 -122
264 -169 401 -14 43 1 91 52 165 26 39 30 51 27 102 l-3 57 -63 -1 c-42 -1
-68 -6 -80 -17 -12 -11 -22 -13 -32 -7 -8 5 -24 7 -36 4 -11 -3 -59 5 -105 17
-63 17 -125 25 -249 29 -244 10 -321 43 -256 109 100 101 137 168 193 351 26
88 58 158 99 220 30 45 64 136 64 170 0 43 14 52 84 57 36 3 71 11 76 18 12
14 -24 95 -115 264 -25 47 -54 115 -65 152 -17 62 -49 131 -90 189 -9 14 -29
66 -44 115 -16 50 -32 99 -36 110 -5 11 -11 31 -14 45 -2 14 -9 41 -15 60 -23
81 -33 117 -41 154 -4 21 -17 50 -29 65 -11 14 -39 56 -62 93 -40 66 -41 67
-35 145 2 43 10 122 16 176 13 112 24 82 -92 246 l-58 80 0 246 0 245 -3220 0
-3220 0 0 -3600z"/>
</g>
</svg>
